<?xml version="1.0" standalone="no"?><!DOCTYPE svg PUBLIC "-//W3C//DTD SVG 1.1//EN" "http://www.w3.org/Graphics/SVG/1.1/DTD/svg11.dtd"><svg t="1741614277042" class="icon" viewBox="0 0 1024 1024" version="1.1" xmlns="http://www.w3.org/2000/svg" p-id="1609" width="64" height="64" xmlns:xlink="http://www.w3.org/1999/xlink"><path d="M544 896l64 0 0 64-64 0 0-64Z" fill="#1989fa" p-id="1610"></path><path d="M416 416 416 64 64 64l0 352 64 0 0 64 64 0 0-64L416 416zM128 352 128 128l224 0 0 224L128 352z" fill="#1989fa" p-id="1611"></path><path d="M192 192l96 0 0 96-96 0 0-96Z" fill="#1989fa" p-id="1612"></path><path d="M608 64l0 352 352 0L960 64 608 64zM896 352l-224 0L672 128l224 0L896 352z" fill="#1989fa" p-id="1613"></path><path d="M736 192l96 0 0 96-96 0 0-96Z" fill="#1989fa" p-id="1614"></path><path d="M192 736l96 0 0 96-96 0 0-96Z" fill="#1989fa" p-id="1615"></path><path d="M64 480l64 0 0 64-64 0 0-64Z" fill="#1989fa" p-id="1616"></path><path d="M192 480l64 0 0 64-64 0 0-64Z" fill="#1989fa" p-id="1617"></path><path d="M256 608 64 608l0 352 352 0L416 608l-96 0 0-64L256 544 256 608zM352 672l0 224L128 896l0-224L352 672z" fill="#1989fa" p-id="1618"></path><path d="M480 96l64 0 0 96-64 0 0-96Z" fill="#1989fa" p-id="1619"></path><path d="M480 256l64 0 0 64-64 0 0-64Z" fill="#1989fa" p-id="1620"></path><path d="M672 480 608 480 544 480 544 384 480 384 480 480 320 480 320 544 480 544 544 544 608 544 608 608 672 608 672 544Z" fill="#1989fa" p-id="1621"></path><path d="M672 608l64 0 0 64-64 0 0-64Z" fill="#1989fa" p-id="1622"></path><path d="M480 608l64 0 0 96-64 0 0-96Z" fill="#1989fa" p-id="1623"></path><path d="M480 768l64 0 0 128-64 0 0-128Z" fill="#1989fa" p-id="1624"></path><path d="M608 704l64 0 0 192-64 0 0-192Z" fill="#1989fa" p-id="1625"></path><path d="M800 608l160 0 0 64-160 0 0-64Z" fill="#1989fa" p-id="1626"></path><path d="M896 480l64 0 0 64-64 0 0-64Z" fill="#1989fa" p-id="1627"></path><path d="M736 480l128 0 0 64-128 0 0-64Z" fill="#1989fa" p-id="1628"></path><path d="M736 704l64 0 0 64-64 0 0-64Z" fill="#1989fa" p-id="1629"></path><path d="M896 768 864 768 864 832 928 832 928 768 960 768 960 704 896 704Z" fill="#1989fa" p-id="1630"></path><path d="M736 832l64 0 0 64-64 0 0-64Z" fill="#1989fa" p-id="1631"></path><path d="M800 896l160 0 0 64-160 0 0-64Z" fill="#1989fa" p-id="1632"></path></svg>