<?xml version="1.0" standalone="no"?><!DOCTYPE svg PUBLIC "-//W3C//DTD SVG 1.1//EN" "http://www.w3.org/Graphics/SVG/1.1/DTD/svg11.dtd"><svg t="1741700608070" class="icon" viewBox="0 0 1024 1024" version="1.1" xmlns="http://www.w3.org/2000/svg" p-id="8255" xmlns:xlink="http://www.w3.org/1999/xlink" width="64" height="64"><path d="M512-7.20482129A519.20482129 519.20482129 0 1 0 1031.20482129 512 519.20482129 519.20482129 0 0 0 512-7.20482129z m0 155.83530198a155.83530197 155.83530197 0 1 1-155.83530197 155.83530197A155.46602402 155.46602402 0 0 1 512 148.63048069z m0 738.55593357a373.70930239 373.70930239 0 0 1-311.30132597-167.28291895c0-103.3978307 207.53421734-159.89735961 311.30132597-159.89735962s309.82421415 56.49952892 311.30132597 159.89735962A373.70930239 373.70930239 0 0 1 512 885.70930239z" fill="#e6e6e6" p-id="8256"></path></svg>