<svg xmlns="http://www.w3.org/2000/svg" xmlns:xlink="http://www.w3.org/1999/xlink" fill="none" version="1.1" width="76" height="76" viewBox="0 0 76 76"><defs><linearGradient x1="0.5" y1="0" x2="0.5" y2="1" id="master_svg0_3_6617"><stop offset="0%" stop-color="#63A1F0" stop-opacity="1"/><stop offset="100%" stop-color="#3070FC" stop-opacity="1"/></linearGradient><linearGradient x1="0.8889994621276855" y1="-0.09212256968021393" x2="0.09922000765800476" y2="0.9134867787361145" id="master_svg1_3_7676"><stop offset="0%" stop-color="#93B1F3" stop-opacity="1"/><stop offset="100%" stop-color="#E7E8FD" stop-opacity="1"/></linearGradient><linearGradient x1="0.8889994621276855" y1="-0.09212256968021393" x2="0.09922000765800476" y2="0.9134867787361145" id="master_svg2_3_7676"><stop offset="0%" stop-color="#93B1F3" stop-opacity="1"/><stop offset="100%" stop-color="#E7E8FD" stop-opacity="1"/></linearGradient><linearGradient x1="0.8889994621276855" y1="-0.09212256968021393" x2="0.09922000765800476" y2="0.9134867787361145" id="master_svg3_3_7676"><stop offset="0%" stop-color="#93B1F3" stop-opacity="1"/><stop offset="100%" stop-color="#E7E8FD" stop-opacity="1"/></linearGradient><linearGradient x1="0.8889994621276855" y1="-0.09212256968021393" x2="0.09922000765800476" y2="0.9134867787361145" id="master_svg4_3_7676"><stop offset="0%" stop-color="#93B1F3" stop-opacity="1"/><stop offset="100%" stop-color="#E7E8FD" stop-opacity="1"/></linearGradient><linearGradient x1="0.8889994621276855" y1="-0.09212256968021393" x2="0.09922000765800476" y2="0.9134867787361145" id="master_svg5_3_7676"><stop offset="0%" stop-color="#93B1F3" stop-opacity="1"/><stop offset="100%" stop-color="#E7E8FD" stop-opacity="1"/></linearGradient></defs><g><g><rect x="0" y="0" width="76" height="76" rx="12" fill="url(#master_svg0_3_6617)" fill-opacity="1"/></g><g><g><path d="M36.95199587440491,29.148112029846192C35.50379587440491,29.48579402984619,28.149835874404907,31.473054029846192,21.83617587440491,38.77205402984619C20.383015874404908,40.450354029846196,19.367634874404906,42.020554029846195,18.688495874404907,43.46415402984619C19.277748874404907,41.83655402984619,20.274815874404908,40.14135402984619,21.769585874404907,38.41918402984619C28.822295874404908,30.294544029846193,36.946995874404905,28.76315402984619,36.946995874404905,28.76315402984619C36.946995874404905,28.76315402984619,36.95199587440491,29.148112029846192,36.95199587440491,29.148112029846192Z" fill="url(#master_svg1_3_7676)" fill-opacity="1"/></g><g><path d="M49.84499906616211,45.81632490246582C46.07979906616211,47.42369190246582,38.79739906616211,51.90642190246582,32.77669906616211,49.07326190246582C39.56808906616211,51.43704190246582,45.98159906616211,46.99821190246582,49.68029906616211,45.44487190246582C49.68029906616211,45.44487190246582,49.84499906616211,45.81632490246582,49.84499906616211,45.81632490246582Z" fill="url(#master_svg2_3_7676)" fill-opacity="1"/></g><g><path d="M52.557,51.89772675323486C52.557,51.89772675323486,45.7839,56.98492675323486,36.8985,58.64122675323486C30.986,59.53442675323487,26.57825,58.76452675323486,22.99113,56.277526753234866C22.0493,55.625526753234865,21.20166,54.84362675323486,20.47266,53.95422675323486C18.293757,51.288226753234866,17.191816,47.58382675323486,18.688251,43.460726753234866C19.35407,42.00872675323487,20.38277,40.44692675323486,21.83593,38.768676753234864C28.1496,31.46966675323486,35.5036,29.482408753234864,36.9518,29.144726753234863C36.9518,29.144726753234863,36.9518,29.538129753234863,36.9518,29.538129753234863C36.9518,29.538129753234863,36.9717,30.939506753234863,36.9717,30.939506753234863C36.9717,30.939506753234863,34.8261,31.530456753234862,32.1195,33.39445675323486C27.98646,36.24449675323486,25.37644,42.621626753234864,28.6373,46.48302675323487C28.6373,46.48302675323487,28.6373,46.49142675323486,28.6373,46.49142675323486C28.6373,46.49142675323486,28.6539,46.51002675323487,28.6539,46.51002675323487C28.8458,46.73362675323486,29.0521,46.944026753234866,29.2715,47.139826753234864C29.6537,47.47722675323486,30.0679,47.775326753234864,30.5083,48.029626753234865C31.226399999999998,48.44802675323486,31.9822,48.796326753234865,32.7654,49.069626753234864C38.786100000000005,51.90282675323486,46.0685,47.42012675323487,49.8337,45.81272675323486C49.8337,45.81272675323486,52.557,51.89772675323486,52.557,51.89772675323486Z" fill="#FDFDFF" fill-opacity="1"/></g><g><path d="M45.919889645385744,40.11596917785644C42.091449645385744,35.49140917785645,37.234269645385744,32.732545177856444,35.32335764538574,34.03768717785645C33.63050964538574,35.19424917785645,36.32209964538574,40.622489177856444,40.79475964538574,44.33697917785645C44.508379645385745,47.398079177856445,51.80248964538574,52.46327917785645,58.99998964538574,56.79067917785645C52.94268964538574,48.274379177856446,45.919889645385744,40.11596917785644,45.919889645385744,40.11596917785644Z" fill="url(#master_svg3_3_7676)" fill-opacity="1"/></g><g style="opacity:0.4000000059604645;"><path d="M46.462845513305666,41.65262879455567C43.856155513305666,38.72829879455566,41.520775513305665,36.602585794555665,40.32396451330566,37.473805794555666C39.42177551330566,38.12722079455566,41.033065513305665,40.89114879455566,43.84116551330566,43.33596879455566C46.17154551330567,45.35024879455567,50.28968551330566,48.87059879455566,55.01698551330566,52.44489879455566C51.053685513305666,46.971118794555665,46.462845513305666,41.65262879455567,46.462845513305666,41.65262879455567Z" fill="#FFFFFF" fill-opacity="1"/></g><g><path d="M53.43768149414063,38.14892387390137C48.557171494140626,45.15752387390137,41.244781494140625,47.614153873901365,41.244781494140625,47.614153873901365C41.244781494140625,47.614153873901365,41.244781494140625,47.232573873901366,41.244781494140625,47.232573873901366C42.89103149414063,46.53526387390137,48.663701494140625,43.81016387390137,53.43768149414063,38.14892387390137Z" fill="url(#master_svg4_3_7676)" fill-opacity="1"/></g><g><path d="M54.794276874542234,35.9559C54.38257687454224,36.7125,53.92967687454224,37.4453,53.437676874542234,38.150800000000004C48.66537687454223,43.8121,42.89097687454223,46.5372,41.24647687454224,47.2345C41.24647687454224,47.2345,41.24647687454224,45.4093,41.24647687454224,45.4093C43.04447687454224,44.5462,44.674476874542236,43.3617,46.058676874542236,41.9126C49.780576874542234,37.9921,50.26827687454224,30.2305,44.06117687454224,27.7468C43.82817687454224,27.6343,43.58397687454224,27.533,43.328776874542235,27.4429C36.076376874542234,24.810679999999998,29.180076874542237,29.5247,24.987066874542236,32.856C24.987066874542236,32.856,22.976276874542236,25.688650000000003,22.976276874542236,25.688650000000003C24.504336874542236,24.38351,28.918736874542237,20.85979,34.35517687454224,18.73915C40.70707687454224,16.338225,45.23637687454224,16.615125,49.371176874542236,18.40146C49.371176874542236,18.40146,49.43437687454224,18.42848,49.43437687454224,18.42848C49.57917687454224,18.49095,49.72397687454223,18.55849,49.86887687454224,18.62603C55.10217687454224,21.1215,59.483276874542234,27.3568,54.794276874542234,35.9559Z" fill="#FDFDFF" fill-opacity="1"/></g><g><path d="M43.78638817749024,27.63874826068115C43.879588177490234,27.672516260681153,43.97278817749023,27.707971260681152,44.06268817749023,27.745121260681152C43.82958817749024,27.63593526068115,43.585488177490234,27.53462726068115,43.33028817749023,27.44120126068115C35.763588177490234,24.695541260681154,28.590358177490234,29.942921260681153,24.461788177490234,33.27610126068115C24.461788177490234,33.27610126068115,24.658815177490233,33.37603126068115,24.658815177490233,33.37603126068115C24.658815177490233,33.37603126068115,24.711091177490236,33.641151260681156,24.711091177490236,33.641151260681156C28.803318177490233,30.32267126068115,36.09378817749023,24.84621126068115,43.78638817749024,27.63874826068115Z" fill="url(#master_svg5_3_7676)" fill-opacity="1"/></g><g><path d="M24.434102332458497,33.298240111694334L22.414992332458496,26.183273111694337C22.468258032458497,26.134309111694336,22.661347332458497,25.958714111694334,22.977612332458495,25.686880111694336L24.988402332458495,32.85418011169433L25.120032332458496,33.32022011169433L24.567402332458496,33.76596011169433L24.434102332458497,33.298240111694334Z" fill-rule="evenodd" fill="#9ABBFC" fill-opacity="1"/></g></g></g></svg>