<svg xmlns="http://www.w3.org/2000/svg" xmlns:xlink="http://www.w3.org/1999/xlink" fill="none" version="1.1" width="24" height="24" viewBox="0 0 24 24"><defs><linearGradient x1="0.5" y1="0" x2="0.5" y2="1" id="master_svg0_1_0456"><stop offset="0%" stop-color="#66A8FF" stop-opacity="1"/><stop offset="100%" stop-color="#0066EC" stop-opacity="1"/></linearGradient></defs><g><g><rect x="0" y="0" width="24" height="24" rx="8" fill="url(#master_svg0_1_0456)" fill-opacity="1"/></g><g><path d="M17.9859,11.372309999999999L15.4765,11.372309999999999C15.3396,11.372309999999999,15.20855,11.429960000000001,15.1124,11.531749999999999C15.01631,11.63325,14.96244,11.770109999999999,14.96244,11.91272L14.96244,12.08119C14.96244,12.378689999999999,15.19396,12.6201,15.47793,12.6201L17.9859,12.6201C18.2699,12.6201,18.5,12.378689999999999,18.5,12.08119L18.5,11.91272C18.5,11.77012,18.4461,11.63326,18.35,11.531749999999999C18.2539,11.429960000000001,18.122799999999998,11.372309999999999,17.9859,11.372309999999999ZM12.16746,6.747099C11.38683,7.393734,9.75421,8.29997,8.58032,9.1728L8.5789,9.1728C8.56574,9.18191,8.552669999999999,9.23045,8.53807,9.23804C8.39976,9.32,8.33712,9.54319,7.58265,9.54319L6.111742,9.54319C5.733043,9.54319,5.5,9.72834,5.5,10.14431L5.5,13.837489999999999C5.5,14.25337,5.714137,14.45831,6.111725,14.45831L7.58849,14.45831C8.3386,14.45988,8.39976,14.68298,8.53809,14.76347C8.55124,14.77103,8.56432,14.81957,8.5774,14.82869L8.57888,14.82869C9.7178,15.70151,11.36068,16.677599999999998,12.16746,17.2984C12.41076,17.4851,13.21762,17.8131,13.21762,16.659399999999998L13.21762,7.339107C13.21762,6.183944,12.40342,6.5527493,12.16746,6.747099ZM14.48322,9.29421C14.61721,9.53858,14.88083,9.60084,15.07305,9.4308L17.1339,7.61993C17.3276,7.451388,17.374200000000002,7.115922,17.2417,6.870074L17.166,6.731916C17.0334,6.4875477,16.7683,6.426765,16.5761,6.5953058L14.51524,8.4062C14.32305,8.57624,14.27496,8.91021,14.40751,9.15607L14.48322,9.29421ZM15.07167,14.56769C14.87937,14.39913,14.61576,14.46139,14.48325,14.70428L14.40753,14.84235C14.27497,15.08681,14.32306,15.42228,14.51526,15.59231L16.5761,17.4047C16.7684,17.5732,17.032,17.5125,17.1645,17.2681L17.2402,17.130000000000003C17.372799999999998,16.8856,17.3247,16.55,17.1325,16.380110000000002L15.07167,14.56769L15.07167,14.56769Z" fill="#FFFFFF" fill-opacity="1" style="mix-blend-mode:passthrough"/></g></g></svg>