<svg xmlns="http://www.w3.org/2000/svg" xmlns:xlink="http://www.w3.org/1999/xlink" fill="none" version="1.1" width="24" height="24" viewBox="0 0 24 24"><defs><linearGradient x1="0.5" y1="0" x2="0.5" y2="1" id="master_svg0_1_0456"><stop offset="0%" stop-color="#66A8FF" stop-opacity="1"/><stop offset="100%" stop-color="#0066EC" stop-opacity="1"/></linearGradient></defs><g><g><rect x="0" y="0" width="24" height="24" rx="8" fill="url(#master_svg0_1_0456)" fill-opacity="1"/></g><g><path d="M16.6003,6.00000152914L7.40031,6.00000152914C6.599972,6.00000152914,6,6.68869,6,7.47537L6,16.5246C6,17.3113,6.599972,18,7.40031,18L16.6003,18C17.4,18,18,17.3113,18,16.5246L18,7.47537C18,6.68869,17.4,6.00000101942,16.6003,6.00000152914ZM12.600259999999999,14.7542L9.00042,14.7542C8.500070000000001,14.7542,8.00028,14.2626,8.00028,13.77044C8.00028,13.27883,8.40045,12.78668,9.00042,12.78668L12.500070000000001,12.78668C12.99986,12.78668,13.50021,13.27883,13.50021,13.77044C13.50021,14.2626,13.10004,14.7542,12.600259999999999,14.7542ZM15.10033,11.21333L9.00042,11.21333C8.500070000000001,11.21333,8.00028,10.72117,8.00028,10.22956C8.00028,9.737960000000001,8.40045,9.2458,9.00042,9.2458L15.00014,9.2458C15.30013,9.2458,15.7003,9.44289,15.79992,9.737960000000001C15.9001,10.03303,16.0003,10.42609,15.79992,10.72117C15.7003,11.01624,15.40031,11.21333,15.10033,11.21333Z" fill="#FFFFFF" fill-opacity="1" style="mix-blend-mode:passthrough"/></g></g></svg>