<svg xmlns="http://www.w3.org/2000/svg" xmlns:xlink="http://www.w3.org/1999/xlink" fill="none" version="1.1" width="24" height="24" viewBox="0 0 24 24"><defs><linearGradient x1="0.5" y1="0" x2="0.5" y2="1" id="master_svg0_1_0456"><stop offset="0%" stop-color="#66A8FF" stop-opacity="1"/><stop offset="100%" stop-color="#0066EC" stop-opacity="1"/></linearGradient></defs><g><g><rect x="0" y="0" width="24" height="24" rx="8" fill="url(#master_svg0_1_0456)" fill-opacity="1"/></g><g><path d="M16.8565,14.92396C16.9726,14.92063,17.0887,14.94395,17.1998,15.01723C16.796799999999998,14.7574,16.5315,14.30436,16.5315,13.78635L16.5315,10.89654C16.5315,8.77956,15.00746,7.01236,12.970970000000001,6.57764L12.970970000000001,6.474375C12.970970000000001,5.934721,12.536480000000001,5.5,12.00083,5.5C11.46517,5.5,11.03068,5.936387,11.03068,6.474375L11.03068,6.57764C8.99419,7.01236,7.470149,8.777899999999999,7.470149,10.89654L7.470149,13.78635C7.470149,14.30436,7.203151,14.7574,6.801824,15.01723C6.914593,14.94395,7.029021,14.91896,7.145107,14.92396C6.788557,14.92562,6.5,15.21377,6.5,15.5735C6.5,15.9333,6.788557,16.223100000000002,7.1467659999999995,16.223100000000002L16.8532,16.223100000000002C17.211399999999998,16.223100000000002,17.5,15.9333,17.5,15.5735C17.5017,15.2171,17.2131,14.92562,16.8565,14.92396ZM12.00248,18.5C12.89635,18.5,13.62106,17.772100000000002,13.62106,16.8744L10.38391,16.8744C10.38391,17.772100000000002,11.10696,18.5,12.00248,18.5Z" fill="#FFFFFF" fill-opacity="1" style="mix-blend-mode:passthrough"/></g></g></svg>