<svg xmlns="http://www.w3.org/2000/svg" xmlns:xlink="http://www.w3.org/1999/xlink" fill="none" version="1.1" width="24" height="24" viewBox="0 0 24 24"><defs><linearGradient x1="0.5" y1="0" x2="0.5" y2="1" id="master_svg0_1_0456"><stop offset="0%" stop-color="#66A8FF" stop-opacity="1"/><stop offset="100%" stop-color="#0066EC" stop-opacity="1"/></linearGradient></defs><g><g><rect x="0" y="0" width="24" height="24" rx="8" fill="url(#master_svg0_1_0456)" fill-opacity="1"/></g><g><path d="M8.89274,8.15894C5.035755,9.44926,5.035755,11.553180000000001,8.89274,12.83714L10.59565,13.40285L11.16118,15.10632C12.44472,18.9646,14.5543,18.9646,15.83784,15.10632L17.7504,9.37298C18.6019,6.798705,17.204,5.393974,14.63055,6.252067L8.89274,8.15894ZM12.4193,12.09981C12.32399,12.19516,12.20326,12.239650000000001,12.08253,12.239650000000001C11.9618,12.239650000000001,11.84107,12.19516,11.74576,12.09981C11.56132,11.91312,11.56132,11.61275,11.74576,11.42605L14.16034,8.99797C14.34462,8.81363,14.64962,8.81363,14.83389,8.99797C15.01816,9.1823,15.01816,9.487400000000001,14.83389,9.67173L12.4193,12.09981Z" fill="#FFFFFF" fill-opacity="1" style="mix-blend-mode:passthrough"/></g></g></svg>