<svg xmlns="http://www.w3.org/2000/svg" xmlns:xlink="http://www.w3.org/1999/xlink" fill="none" version="1.1" width="32" height="32" viewBox="0 0 32 32"><defs><clipPath id="master_svg0_174_8734"><rect x="0" y="0" width="32" height="32" rx="0"/></clipPath></defs><g clip-path="url(#master_svg0_174_8734)"><g><path d="M5,7.57895C5,6.706919,5.73873,6,6.65,6C6.65,6,13.25,6,13.25,6C13.41323,6,13.56803,6.0693805,13.67252,6.189377C13.67252,6.189377,16.2576,9.15789,16.2576,9.15789C16.2576,9.15789,25.35,9.15789,25.35,9.15789C26.2613,9.15789,27,9.864799999999999,27,10.73684C27,10.73684,27,24.4211,27,24.4211C27,25.2931,26.2613,26,25.35,26C25.35,26,6.65,26,6.65,26C5.738735,26,5,25.2931,5,24.4211C5,24.4211,5,7.57895,5,7.57895ZM25.8999,14.42115C25.8999,14.42115,6.09989,14.42115,6.09989,14.42115C6.09989,14.42115,6.09989,15.47379,6.09989,15.47379C6.09989,15.47379,25.8999,15.47379,25.8999,15.47379C25.8999,15.47379,25.8999,14.42115,25.8999,14.42115Z" fill="#0066EC" fill-opacity="1"/></g></g></svg>