<svg xmlns="http://www.w3.org/2000/svg" xmlns:xlink="http://www.w3.org/1999/xlink" fill="none" version="1.1" width="32" height="32" viewBox="0 0 32 32"><defs><clipPath id="master_svg0_174_8749"><rect x="0" y="0" width="32" height="32" rx="0"/></clipPath></defs><g clip-path="url(#master_svg0_174_8749)"><g></g><g><g><path d="M5,8.5C5,7.671571,5.703552,7,6.57143,7C6.57143,7,13.38095,7,13.38095,7C13.53641,7,13.68383,7.0659114,13.78335,7.179907C13.78335,7.179907,16.2453,9.99999,16.2453,9.99999C16.2453,9.99999,23.0714,9.99999,23.0714,9.99999C23.9393,9.99999,24.6429,10.67155,24.6429,11.49999C24.6429,11.49999,24.6429,14.49998,24.6429,14.49998C24.6429,14.77613,24.4083,14.99998,24.119,14.99998C24.119,14.99998,8.551829999999999,14.99998,8.551829999999999,14.99998C8.551829999999999,14.99998,6.03198,24.6212,6.03198,24.6212C5.967818,24.8662,5.722368,25.0271,5.459809,24.9962C5.197249,24.9654,5,24.7525,5,24.5C5,24.5,5,8.5,5,8.5ZM6.57143,7.999998C6.28214,7.999998,6.04762,8.22385,6.04762,8.5C6.04762,8.5,6.04762,20.4384,6.04762,20.4384C6.04762,20.4384,7.63469,14.378720000000001,7.63469,14.378720000000001C7.69298,14.156130000000001,7.9025,13.99999,8.14286,13.99999C8.14286,13.99999,23.5952,13.99999,23.5952,13.99999C23.5952,13.99999,23.5952,11.49999,23.5952,11.49999C23.5952,11.22383,23.3607,10.99999,23.0714,10.99999C23.0714,10.99999,16,10.99999,16,10.99999C15.8445,10.99999,15.6971,10.93408,15.5976,10.82008C15.5976,10.82008,13.13561,7.999998,13.13561,7.999998C13.13561,7.999998,6.57143,7.999998,6.57143,7.999998Z" fill="#0066EC" fill-opacity="1"/></g><g><path d="M8.04465,13.999924659729004C7.80256,13.999924659729004,7.59201,14.158279659729004,7.53537,14.382949659729004C7.53537,14.382949659729004,5.0145409,24.382924659729003,5.0145409,24.382924659729003C4.9769955,24.531824659729004,5.0130504,24.689024659729004,5.112374,24.809324659729004C5.211698,24.929724659729004,5.363328,24.999924659729004,5.523814,24.999924659729004C5.523814,24.999924659729004,24.3809,24.999924659729004,24.3809,24.999924659729004C24.6306,24.999924659729004,24.8456,24.831624659729002,24.8946,24.597924659729003C24.8946,24.597924659729003,26.9898,14.597981659729005,26.9898,14.597981659729005C27.0206,14.451094659729003,26.9808,14.298773659729004,26.8813,14.182929659729004C26.7818,14.067086059729004,26.6331,13.999924659729004,26.4762,13.999924659729004C26.4762,13.999924659729004,8.04465,13.999924659729004,8.04465,13.999924659729004Z" fill="#0066EC" fill-opacity="1"/></g></g></g></svg>