<svg xmlns="http://www.w3.org/2000/svg" xmlns:xlink="http://www.w3.org/1999/xlink" fill="none" version="1.1" width="32" height="32" viewBox="0 0 32 32"><g><g></g><g><g><path d="M7,24C7,25.1046,7.895431,26,9,26L23,26C24.1046,26,25,25.1046,25,24L25,16L25,12.25L18.5714,6L16,6L9,6C7.895431,6,7,6.895431,7,8L7,24Z" fill="#0066EC" fill-opacity="1"/></g><g><path d="M11,12.5L14.85714,12.5Q14.90639,12.5,14.95469,12.490393Q15.00299,12.480785000000001,15.04848,12.46194Q15.09398,12.443094,15.13493,12.415735Q15.17587,12.388375,15.2107,12.353553Q15.245519999999999,12.318731,15.27288,12.277785Q15.300239999999999,12.236839,15.31908,12.191342Q15.33793,12.145845,15.34754,12.0975451Q15.357140000000001,12.0492457,15.357140000000001,12Q15.357140000000001,11.9507543,15.347529999999999,11.9024549Q15.33793,11.854155,15.31908,11.808658Q15.300239999999999,11.763161,15.27288,11.722215Q15.245519999999999,11.681269,15.2107,11.646447Q15.17587,11.611625,15.13493,11.584265Q15.09398,11.556906,15.04848,11.53806Q15.00299,11.519214999999999,14.95469,11.509607Q14.90639,11.5,14.85714,11.5L11,11.5Q10.9507543,11.5,10.9024549,11.509607Q10.854155,11.519214999999999,10.808658,11.53806Q10.763161,11.556906,10.722215,11.584265Q10.681269,11.611625,10.646447,11.646447Q10.611625,11.681269,10.584265,11.722215Q10.556906,11.763161,10.53806,11.808658Q10.519214999999999,11.854155,10.509607,11.9024549Q10.5,11.9507543,10.5,12Q10.5,12.0492457,10.509607,12.0975451Q10.519214999999999,12.145845,10.53806,12.191342Q10.556906,12.236839,10.584265,12.277785Q10.611625,12.318731,10.646447,12.353553Q10.681269,12.388375,10.722215,12.415735Q10.763161,12.443094,10.808658,12.46194Q10.854155,12.480785000000001,10.9024549,12.490393Q10.9507543,12.5,11,12.5Z" fill-rule="evenodd" fill="#FFFFFF" fill-opacity="1"/></g><g><path d="M11,16.500000953674316L17.42857,16.500000953674316Q17.47782,16.500000953674316,17.52612,16.490393953674317Q17.57442,16.480785953674317,17.61991,16.461940953674315Q17.66541,16.443094953674315,17.70636,16.415735953674318Q17.7473,16.388375953674316,17.78212,16.353553953674318Q17.81695,16.318731953674316,17.84431,16.277785953674318Q17.87166,16.236839953674316,17.89051,16.191342953674315Q17.90936,16.145845953674318,17.91896,16.097546053674318Q17.92857,16.049246653674317,17.92857,16.000000953674316Q17.92857,15.950755253674316,17.91896,15.902455853674317Q17.90936,15.854155953674317,17.89051,15.808658953674316Q17.87166,15.763161953674317,17.8443,15.722215953674317Q17.81695,15.681269953674317,17.78212,15.646447953674317Q17.7473,15.611625953674316,17.70636,15.584265953674317Q17.66541,15.556906953674316,17.61991,15.538060953674316Q17.57442,15.519215953674316,17.52612,15.509607953674317Q17.47782,15.500000953674316,17.42857,15.500000953674316L11,15.500000953674316Q10.9507543,15.500000953674316,10.9024549,15.509607953674317Q10.854155,15.519215953674316,10.808658,15.538060953674316Q10.763161,15.556906953674316,10.722215,15.584265953674317Q10.681269,15.611625953674316,10.646447,15.646447953674317Q10.611625,15.681269953674317,10.584265,15.722215953674317Q10.556906,15.763161953674317,10.53806,15.808658953674316Q10.519214999999999,15.854155953674317,10.509607,15.902455853674317Q10.5,15.950755253674316,10.5,16.000000953674316Q10.5,16.049246653674317,10.509607,16.097546053674318Q10.519214999999999,16.145845953674318,10.53806,16.191342953674315Q10.556906,16.236839953674316,10.584265,16.277785953674318Q10.611625,16.318731953674316,10.646447,16.353553953674318Q10.681269,16.388375953674316,10.722215,16.415735953674318Q10.763161,16.443094953674315,10.808658,16.461940953674315Q10.854155,16.480785953674317,10.9024549,16.490393953674317Q10.9507543,16.500000953674316,11,16.500000953674316Z" fill-rule="evenodd" fill="#FFFFFF" fill-opacity="1"/></g><g><path d="M11,20.5L20,20.5Q20.049239999999998,20.5,20.097540000000002,20.490393Q20.14584,20.480785,20.19134,20.46194Q20.23684,20.443094,20.27778,20.415735Q20.318730000000002,20.388375,20.35355,20.353553Q20.388370000000002,20.318731,20.41573,20.277785Q20.443089999999998,20.236839,20.46194,20.191342Q20.48078,20.145845,20.490389999999998,20.0975451Q20.5,20.0492457,20.5,20Q20.5,19.9507543,20.490389999999998,19.9024549Q20.48078,19.854155,20.46194,19.808658Q20.443089999999998,19.763161,20.41573,19.722215Q20.388370000000002,19.681269,20.35355,19.646447Q20.318730000000002,19.611625,20.27778,19.584265Q20.23684,19.556906,20.19134,19.53806Q20.14584,19.519215,20.097540000000002,19.509607Q20.049239999999998,19.5,20,19.5L11,19.5Q10.9507543,19.5,10.9024549,19.509607Q10.854155,19.519215,10.808658,19.53806Q10.763161,19.556906,10.722215,19.584265Q10.681269,19.611625,10.646447,19.646447Q10.611625,19.681269,10.584265,19.722215Q10.556906,19.763161,10.53806,19.808658Q10.519214999999999,19.854155,10.509607,19.9024549Q10.5,19.9507543,10.5,20Q10.5,20.0492457,10.509607,20.0975451Q10.519214999999999,20.145845,10.53806,20.191342Q10.556906,20.236839,10.584265,20.277785Q10.611625,20.318731,10.646447,20.353553Q10.681269,20.388375,10.722215,20.415735Q10.763161,20.443094,10.808658,20.46194Q10.854155,20.480785,10.9024549,20.490393Q10.9507543,20.5,11,20.5Z" fill-rule="evenodd" fill="#FFFFFF" fill-opacity="1"/></g></g></g></svg>